<svg width="344" height="29" viewBox="0 0 344 29" fill="none" xmlns="http://www.w3.org/2000/svg">
<path d="M272.557 3.39307H237.505V6.47443H272.557V3.39307Z" fill="white"/>
<path d="M253.936 9.8754L252.113 18.3524H249.908L251.732 9.8754H253.936ZM263.212 15.3491L264.373 12.1659L265.04 15.3491H263.212ZM265.673 18.3524H267.712L265.931 9.8754H264.05C263.626 9.8754 263.269 10.1201 263.111 10.497L259.802 18.3524H262.118L262.577 17.0865H265.406L265.673 18.3524ZM259.917 15.5849C259.927 13.3479 256.808 13.2238 256.829 12.2244C256.836 11.9206 257.127 11.5968 257.764 11.5142C258.08 11.4737 258.951 11.4411 259.938 11.8936L260.325 10.0951C259.794 9.9045 259.111 9.7207 258.262 9.7207C256.083 9.7207 254.549 10.8723 254.537 12.5226C254.523 13.7431 255.633 14.4236 256.466 14.8298C257.326 15.2451 257.614 15.5122 257.61 15.8831C257.604 16.4519 256.924 16.7037 256.292 16.7133C255.182 16.7305 254.539 16.4151 254.027 16.1774L253.627 18.0356C254.143 18.2706 255.094 18.4749 256.078 18.4855C258.395 18.4855 259.911 17.3474 259.917 15.5849ZM250.786 9.8754L247.213 18.3524H244.883L243.125 11.5872C243.018 11.1712 242.926 11.0183 242.602 10.8425C242.071 10.5561 241.196 10.2883 240.426 10.1217L240.478 9.8754H244.23C244.708 9.8754 245.138 10.192 245.247 10.7393L246.176 15.6451L248.47 9.8754H250.786Z" fill="white"/>
<path d="M272.557 21.7318H237.505V24.8134H272.557V21.7318Z" fill="white"/>
<rect x="234.5" y="0.5" width="41.0619" height="27.0412" stroke="white"/>
<path fill-rule="evenodd" clip-rule="evenodd" d="M315.027 25.7423C317.727 25.7423 320.22 24.8267 322.227 23.2809C319.681 20.7897 318.093 17.2712 318.093 13.3713C318.093 9.47103 319.681 5.95259 322.227 3.46167C320.22 1.91561 317.727 1 315.027 1C308.385 1 303 6.53883 303 13.3713C303 20.2034 308.385 25.7423 315.027 25.7423ZM331.386 1C328.685 1 326.193 1.91561 324.185 3.46167C326.732 5.95259 328.319 9.47103 328.319 13.3713C328.319 17.2712 326.732 20.7897 324.185 23.2809C326.193 24.8267 328.685 25.7423 331.386 25.7423C338.028 25.7423 343.412 20.2034 343.412 13.3713C343.412 6.53883 338.028 1 331.386 1ZM327.053 13.3713C327.053 9.78831 325.572 6.56109 323.206 4.30194C320.84 6.56109 319.359 9.78831 319.359 13.3713C319.359 16.954 320.84 20.1812 323.206 22.4403C325.572 20.1812 327.053 16.954 327.053 13.3713Z" fill="white"/>
<path fill-rule="evenodd" clip-rule="evenodd" d="M3.41753 0C1.53008 0 0 1.56931 0 3.50515V24.5361C0 26.4719 1.53008 28.0412 3.41753 28.0412H38.6443C40.5318 28.0412 42.0619 26.4719 42.0619 24.5361V3.50515C42.0619 1.56931 40.5318 0 38.6443 0H3.41753ZM12.6576 6.47108C13.4837 6.47108 14.2447 6.56669 14.9404 6.7579C15.6361 6.93546 16.2376 7.20862 16.7449 7.57739C17.2521 7.93251 17.6435 8.36957 17.9189 8.88858C18.2087 9.40759 18.3537 9.99489 18.3537 10.6505C18.3537 11.429 18.1797 12.1734 17.8319 12.8836C17.4985 13.5938 17.0057 14.2836 16.3535 14.9528C15.7158 15.6221 14.9331 16.2777 14.0055 16.9196C13.0779 17.5479 12.0344 18.1761 10.8749 18.8044H18.4189V21.5702H6.3093V18.8044C7.36735 18.0805 8.40366 17.3771 9.41823 16.6942C10.4328 15.9977 11.3314 15.3216 12.1141 14.666C12.9112 13.9967 13.549 13.348 14.0273 12.7197C14.5056 12.0914 14.7447 11.47 14.7447 10.8554C14.7447 10.2134 14.5273 9.74222 14.0925 9.44174C13.6577 9.1276 13.1431 8.97053 12.5489 8.97053C12.23 8.97053 11.9112 9.02516 11.5923 9.13443C11.2879 9.23003 11.0125 9.39393 10.7662 9.62612C10.5343 9.85831 10.3458 10.1793 10.2009 10.589C10.056 10.9851 9.99798 11.4768 10.027 12.0641H6.48323C6.45424 11.19 6.58468 10.4046 6.87456 9.70807C7.17893 9.0115 7.6065 8.4242 8.15726 7.94616C8.70803 7.46813 9.3675 7.10618 10.1357 6.86034C10.9038 6.60083 11.7445 6.47108 12.6576 6.47108ZM23.7748 21.5702V11.5929H20.1875V9.11394C20.8398 9.10028 21.405 9.04565 21.8833 8.95004C22.3761 8.84078 22.7964 8.69054 23.1443 8.49932C23.4921 8.30811 23.782 8.06909 24.0139 7.78227C24.2458 7.48179 24.4487 7.12667 24.6226 6.71693H27.3402V21.5702H23.7748ZM36.804 14.7495V13.2751H34.4812V10.785H32.8174V13.2751H30.4947V14.7495H32.8174V17.256H34.4812V14.7495H36.804Z" fill="white"/>
<path fill-rule="evenodd" clip-rule="evenodd" d="M77.4756 0C77.501 0.245482 77.512 0.492218 77.5084 0.738976C77.4268 2.0062 76.8869 3.20219 75.9872 4.10854C75.5763 4.53461 75.1212 4.90837 74.5612 5.12807C74.0821 5.31747 73.5812 5.35411 73.0763 5.39103L73.0698 5.3915L73.0682 5.39139C73.0667 5.39117 73.0652 5.39065 73.0636 5.38996C73.0621 5.38931 73.0606 5.38848 73.059 5.38756L73.0539 5.38414C73.0511 5.38228 73.0484 5.38045 73.0458 5.37915C73.1179 2.46798 74.6026 0.584892 77.4756 0ZM81.9335 7.21739L81.7529 7.38045C81.5835 7.53299 81.4142 7.68559 81.2475 7.84129C80.4479 8.58881 79.8475 9.45806 79.6358 10.5423C79.4834 11.2544 79.4885 11.9906 79.6508 12.7005C79.813 13.4105 80.1286 14.0774 80.5758 14.6556C81.0368 15.2728 81.5862 15.7854 82.3174 16.0821C82.3691 16.1028 82.421 16.122 82.4771 16.1428C82.5141 16.1565 82.5528 16.1709 82.5945 16.1868C82.5774 16.2321 82.5609 16.2773 82.5444 16.3223L82.5073 16.425L82.5003 16.4443L82.4921 16.4672C82.4347 16.627 82.3777 16.7848 82.3126 16.94C81.717 18.3666 80.9425 19.6866 79.885 20.8317C79.6851 21.0434 79.4692 21.2399 79.2394 21.4194C78.4696 22.0376 77.6037 22.2754 76.6271 21.9901C76.1402 21.8493 75.6592 21.6914 75.1741 21.544C74.6801 21.379 74.1652 21.2829 73.6443 21.2587C72.9919 21.2435 72.3935 21.4366 71.7873 21.6553C71.3336 21.8323 70.8697 21.9825 70.3979 22.1052C69.6542 22.2811 68.9806 22.0548 68.3649 21.642C67.7589 21.2184 67.237 20.688 66.8254 20.0775C65.7528 18.5849 64.9474 16.9215 64.444 15.1596C63.9922 13.5963 63.8836 11.9555 64.1255 10.3473C64.3429 8.91408 64.8837 7.62065 65.9017 6.55166C66.9601 5.44463 68.2638 4.98907 69.7899 5.13935C70.55 5.21354 71.2754 5.43132 72.0028 5.64054C72.1376 5.67946 72.2738 5.71406 72.4104 5.74725L72.5159 5.77261L72.6264 5.79892C72.6772 5.81099 72.728 5.82307 72.7788 5.83534C72.8268 5.84693 72.8748 5.85868 72.9227 5.8707C73.3525 5.96644 73.8006 5.94441 74.2187 5.80698C74.5332 5.71619 74.8455 5.61883 75.1572 5.52168L75.1591 5.52108C75.441 5.43322 75.7225 5.34553 76.0046 5.26298C76.8797 4.99218 77.8086 4.93733 78.7102 5.10321C79.8956 5.32956 80.8327 5.95916 81.6169 6.84173C81.7131 6.95206 81.8094 7.06427 81.9056 7.1765C81.9161 7.18928 81.9255 7.20296 81.9335 7.21739ZM92.9389 3.10036C91.3731 3.09188 89.8092 3.21246 88.2637 3.46081V21.8874H90.699V14.4179C91.2589 14.5558 91.9306 14.5834 92.658 14.5834C95.0375 14.5834 97.136 13.89 98.4263 12.5329C99.3778 11.5647 99.882 10.2361 99.882 8.54893C99.882 6.89125 99.2662 5.53505 98.2309 4.64962C97.109 3.65386 95.3444 3.10036 92.9389 3.10036ZM92.7138 12.6413C91.9026 12.6413 91.2301 12.5899 90.699 12.4511V5.19646C91.1185 5.089 91.9306 5.00626 92.9937 5.00626C95.6812 5.00626 97.4438 6.19509 97.4438 8.65734C97.4438 11.2309 95.6523 12.6413 92.7138 12.6413ZM108.665 21.8856L108.472 20.1975H108.388C107.632 21.2494 106.176 22.19 104.245 22.19C101.503 22.19 100.103 20.2812 100.103 18.3439C100.103 15.1103 103.015 13.3366 108.248 13.3642V13.0875C108.248 11.9814 107.94 9.98893 105.169 9.98893C103.91 9.98893 102.594 10.3769 101.643 10.9856L101.083 9.38121C102.203 8.66126 103.826 8.19144 105.533 8.19144C109.676 8.19144 110.683 10.9856 110.683 13.6685V18.673C110.683 19.8352 110.739 20.9698 110.907 21.8828L108.665 21.8856ZM108.301 15.0523C105.615 14.9972 102.563 15.467 102.563 18.0672C102.563 19.644 103.627 20.3915 104.887 20.3915C106.65 20.3915 107.774 19.2845 108.159 18.1509C108.245 17.9012 108.292 17.6397 108.298 17.3757L108.301 15.0523ZM116.918 16.4086L113.952 8.49679H111.266L116.271 20.831C116.383 21.1353 116.439 21.3284 116.439 21.4672C116.439 21.6061 116.359 21.7991 116.247 22.0483C115.779 23.0989 115.07 24.0272 114.176 24.7598C113.541 25.2896 112.81 25.6947 112.021 25.9533L112.637 28C113.253 27.8897 114.456 27.475 115.659 26.4232C117.339 24.9833 118.542 22.6332 120.305 18.0406L124 8.49679H121.397L118.706 16.3534C118.489 16.9832 118.295 17.6362 118.116 18.2367C118.02 18.5595 117.928 18.867 117.84 19.1476H117.784C117.562 18.3449 117.226 17.294 116.918 16.4086Z" fill="white"/>
<path fill-rule="evenodd" clip-rule="evenodd" d="M154.734 6.28307C156.265 6.25776 157.744 6.84023 158.853 7.90483L161.917 4.81762C159.973 2.979 157.399 1.96962 154.734 2.0007C152.745 2.00067 150.795 2.55767 149.101 3.6096C147.408 4.6615 146.038 6.16697 145.143 7.95815L145.143 7.95983C144.392 9.46605 144 11.1288 144 12.815C144 14.5012 144.392 16.1639 145.143 17.6701L145.143 17.674C146.038 19.4652 147.408 20.9706 149.101 22.0225C150.795 23.0744 152.745 23.6314 154.734 23.6314V23.6277C157.631 23.6277 160.069 22.6698 161.846 21.0168L161.862 21.0167C163.888 19.1338 165.055 16.3518 165.055 13.0605H165.042C165.044 12.3211 164.983 11.5829 164.86 10.854H154.734V15.0261H160.542C160.423 15.6916 160.172 16.326 159.804 16.8908C159.435 17.4556 158.957 17.939 158.397 18.3119V18.3248L158.381 18.312C157.418 18.9666 156.178 19.3472 154.734 19.3472C151.934 19.3472 149.558 17.446 148.716 14.8846L148.708 14.8845C148.259 13.5421 148.259 12.0879 148.708 10.7455V10.7438C149.558 8.18063 151.934 6.28124 154.726 6.28124L154.734 6.28307ZM174.742 12.391V5.82121V5.81938H178.754C179.399 5.81423 180.032 6.00168 180.572 6.35816C181.112 6.71465 181.535 7.22422 181.789 7.82274C182.042 8.42126 182.114 9.08199 181.996 9.72178C181.878 10.3616 181.575 10.9518 181.125 11.4183C180.818 11.737 180.449 11.9881 180.041 12.1555C179.632 12.323 179.194 12.4031 178.754 12.391H174.742ZM174.742 22.3256V14.7096H178.708C180.343 14.7108 181.717 14.1764 182.83 13.1062C183.373 12.5981 183.807 11.9822 184.104 11.2973C184.4 10.6122 184.553 9.87284 184.553 9.12539C184.553 8.37795 184.4 7.63856 184.104 6.95354C183.807 6.26852 183.373 5.65267 182.83 5.14457C182.283 4.61249 181.638 4.19466 180.93 3.91508C180.223 3.63548 179.468 3.49967 178.708 3.51546H172.342V22.3256H174.742ZM187.192 19.269C187.054 18.9943 186.982 18.6901 186.984 18.3818C186.984 17.6831 187.31 17.0971 187.963 16.624C188.616 16.1508 189.429 15.9142 190.401 15.9142C191.741 15.913 192.785 16.2109 193.532 16.8078C193.532 17.3097 193.427 17.8058 193.222 18.2633C193.017 18.7207 192.718 19.129 192.345 19.4611C191.628 20.1827 190.657 20.5887 189.644 20.5901C188.97 20.6029 188.312 20.3808 187.781 19.9612C187.533 19.7811 187.331 19.5438 187.192 19.269ZM194.278 10.4642C193.257 9.50932 191.859 9.03187 190.084 9.03187C187.806 9.03187 186.085 9.87155 184.923 11.5509L187.039 12.8914C187.823 11.7526 188.883 11.1832 190.221 11.1832C191.077 11.1711 191.906 11.485 192.542 12.0621C192.855 12.3227 193.106 12.65 193.277 13.0205C193.449 13.391 193.537 13.7953 193.534 14.2042V14.7558C192.611 14.2312 191.437 13.9688 190.011 13.9688C188.336 13.9676 186.998 14.3617 185.999 15.1511C185 15.9406 184.5 16.9997 184.5 18.3284C184.489 18.928 184.611 19.5224 184.857 20.0683C185.103 20.6141 185.467 21.0977 185.922 21.4837C186.869 22.3258 188.051 22.745 189.458 22.745C191.111 22.745 192.432 22.0096 193.423 20.5386H193.529V22.3258H195.815V14.3917C195.812 12.7283 195.299 11.4191 194.278 10.4642ZM209 9.44733L200.989 28H198.511L201.485 21.5093L196.215 9.44733H198.824L202.634 18.6979H202.685L206.39 9.44733H209Z" fill="white"/>
</svg>
