<svg width="56" height="48" viewBox="0 0 56 48" fill="none" xmlns="http://www.w3.org/2000/svg">
<path d="M54.6364 24C54.6364 36.5691 42.7731 47 27.8182 47C12.8632 47 1 36.5691 1 24C1 11.4309 12.8632 1 27.8182 1C42.7731 1 54.6364 11.4309 54.6364 24Z" fill="#FF267E" stroke="#000055" stroke-width="2"/>
<path d="M16.7362 15.7252L20.7908 28.8506L24.7351 15.7252H27.6879L22.2231 32.2746H19.2262L13.6953 15.7252H16.7362Z" fill="#000055"/>
<path d="M33.0646 24.7646C32.4329 24.6276 31.8379 24.445 31.2797 24.2167C30.7215 23.9733 30.2293 23.6613 29.8033 23.2809C29.392 22.9004 29.0614 22.4515 28.8117 21.9341C28.5767 21.4015 28.4591 20.7851 28.4591 20.0851C28.4591 19.309 28.6354 18.6318 28.988 18.0535C29.3406 17.4753 29.8033 16.9959 30.3762 16.6155C30.9492 16.2198 31.5955 15.923 32.3154 15.7252C33.0352 15.5274 33.7624 15.4285 34.4969 15.4285C35.2902 15.4285 36.032 15.5274 36.7225 15.7252C37.4129 15.9078 38.0299 16.2046 38.5735 16.6155C39.117 17.0111 39.5724 17.5209 39.9397 18.1448C40.3216 18.7536 40.5934 19.4916 40.755 20.359H38.0446C37.9271 19.8568 37.7435 19.446 37.4937 19.1264C37.244 18.7916 36.9502 18.5329 36.6123 18.3503C36.2744 18.1525 35.9072 18.0155 35.5105 17.9394C35.1286 17.8481 34.7393 17.8024 34.3426 17.8024C34.0341 17.8024 33.6963 17.8405 33.329 17.9166C32.9764 17.9927 32.6459 18.122 32.3374 18.3046C32.0436 18.472 31.7939 18.6927 31.5882 18.9666C31.3825 19.2405 31.2797 19.5829 31.2797 19.9938C31.2797 20.633 31.5 21.1275 31.9408 21.4775C32.3962 21.8123 32.9691 22.0482 33.6595 22.1852L35.6207 22.5732C36.3258 22.7102 37.0016 22.8928 37.648 23.1211C38.309 23.3341 38.8893 23.6309 39.3888 24.0113C39.9029 24.3918 40.3143 24.8635 40.6228 25.4266C40.9313 25.9896 41.0855 26.6896 41.0855 27.5266C41.0855 28.3636 40.9019 29.1017 40.5346 29.7408C40.1674 30.3647 39.6826 30.8898 39.0803 31.3159C38.4927 31.7267 37.8169 32.0387 37.053 32.2518C36.3038 32.4648 35.5326 32.5713 34.7393 32.5713C33.7844 32.5713 32.9103 32.442 32.117 32.1833C31.3385 31.9246 30.6554 31.5517 30.0677 31.0648C29.4948 30.5626 29.0321 29.9539 28.6795 29.2386C28.3269 28.5234 28.1066 27.7092 28.0184 26.7962H30.7729C31.0226 27.9375 31.4927 28.7897 32.1832 29.3528C32.8736 29.9158 33.7697 30.1973 34.8715 30.1973C35.3416 30.1973 35.7823 30.1441 36.1936 30.0376C36.6196 29.931 36.9869 29.7712 37.2954 29.5582C37.6039 29.3451 37.8463 29.0864 38.0226 28.7821C38.1989 28.4625 38.287 28.1049 38.287 27.7092C38.287 27.2831 38.1842 26.9255 37.9785 26.6364C37.7875 26.3472 37.5304 26.1038 37.2073 25.9059C36.8988 25.7081 36.5462 25.5559 36.1496 25.4494C35.7676 25.3276 35.3857 25.2287 35.0037 25.1526L33.0646 24.7646Z" fill="#000055"/>
</svg>
